<?xml version="1.0" encoding="UTF-8"?>
<svg xmlns="http://www.w3.org/2000/svg" viewBox="0 0 540 320" role="img">
  <rect width="540" height="320" fill="#ffffff"/>
  <line x1="72" y1="28" x2="72" y2="236" stroke="#243040" stroke-width="2"/>
  <line x1="72" y1="236" x2="506" y2="236" stroke="#243040" stroke-width="2"/>
  <polygon points="72,18 67,30 77,30" fill="#243040"/>
  <polygon points="516,236 504,231 504,241" fill="#243040"/>
  <text x="40" y="132" fill="#243040" font-family="system-ui, sans-serif" font-size="15" transform="rotate(-90 40 132)">Individuals</text>
  <text x="286" y="278" fill="#243040" font-family="system-ui, sans-serif" font-size="16" text-anchor="middle">Trait value</text>
  <text x="90" y="258" fill="#243040" font-family="system-ui, sans-serif" font-size="14">Low</text>
  <text x="486" y="258" fill="#243040" font-family="system-ui, sans-serif" font-size="14" text-anchor="end">High</text>
  <path d="M86.0 236.0 L91.0 236.0 L96.0 236.0 L101.0 236.0 L106.0 236.0 L111.0 236.0 L116.0 236.0 L121.0 236.0 L126.0 236.0 L131.0 236.0 L136.0 236.0 L141.0 236.0 L146.0 236.0 L151.0 236.0 L156.0 236.0 L161.0 236.0 L166.0 235.9 L171.0 235.9 L176.0 235.8 L181.0 235.7 L186.0 235.4 L191.0 235.0 L196.0 234.2 L201.0 233.1 L206.0 231.5 L211.0 229.1 L216.0 225.6 L221.0 220.9 L226.0 214.6 L231.0 206.6 L236.0 196.6 L241.0 184.7 L246.0 171.0 L251.0 156.0 L256.0 140.2 L261.0 124.3 L266.0 109.5 L271.0 96.6 L276.0 86.5 L281.0 80.2 L286.0 78.0 L291.0 80.2 L296.0 86.5 L301.0 96.6 L306.0 109.5 L311.0 124.3 L316.0 140.2 L321.0 156.0 L326.0 171.0 L331.0 184.7 L336.0 196.6 L341.0 206.6 L346.0 214.6 L351.0 220.9 L356.0 225.6 L361.0 229.1 L366.0 231.5 L371.0 233.1 L376.0 234.2 L381.0 235.0 L386.0 235.4 L391.0 235.7 L396.0 235.8 L401.0 235.9 L406.0 235.9 L411.0 236.0 L416.0 236.0 L421.0 236.0 L426.0 236.0 L431.0 236.0 L436.0 236.0 L441.0 236.0 L446.0 236.0 L451.0 236.0 L456.0 236.0 L461.0 236.0 L466.0 236.0 L471.0 236.0 L476.0 236.0 L481.0 236.0 L486.0 236.0 L486.0 236 L86.0 236 Z" fill="#1d4e89" fill-opacity="0.12"/>
  <path d="M86.0 233.6 L91.0 233.1 L96.0 232.5 L101.0 231.8 L106.0 231.0 L111.0 230.1 L116.0 229.0 L121.0 227.8 L126.0 226.4 L131.0 224.8 L136.0 223.0 L141.0 221.0 L146.0 218.8 L151.0 216.4 L156.0 213.7 L161.0 210.8 L166.0 207.6 L171.0 204.2 L176.0 200.6 L181.0 196.7 L186.0 192.6 L191.0 188.4 L196.0 183.9 L201.0 179.3 L206.0 174.6 L211.0 169.9 L216.0 165.1 L221.0 160.3 L226.0 155.6 L231.0 151.0 L236.0 146.6 L241.0 142.4 L246.0 138.5 L251.0 134.9 L256.0 131.7 L261.0 128.9 L266.0 126.5 L271.0 124.7 L276.0 123.3 L281.0 122.5 L286.0 122.2 L291.0 122.5 L296.0 123.3 L301.0 124.7 L306.0 126.5 L311.0 128.9 L316.0 131.7 L321.0 134.9 L326.0 138.5 L331.0 142.4 L336.0 146.6 L341.0 151.0 L346.0 155.6 L351.0 160.3 L356.0 165.1 L361.0 169.9 L366.0 174.6 L371.0 179.3 L376.0 183.9 L381.0 188.4 L386.0 192.6 L391.0 196.7 L396.0 200.6 L401.0 204.2 L406.0 207.6 L411.0 210.8 L416.0 213.7 L421.0 216.4 L426.0 218.8 L431.0 221.0 L436.0 223.0 L441.0 224.8 L446.0 226.4 L451.0 227.8 L456.0 229.0 L461.0 230.1 L466.0 231.0 L471.0 231.8 L476.0 232.5 L481.0 233.1 L486.0 233.6" fill="none" stroke="#5c6b7a" stroke-width="3" stroke-dasharray="7 6"/>
  <path d="M86.0 236.0 L91.0 236.0 L96.0 236.0 L101.0 236.0 L106.0 236.0 L111.0 236.0 L116.0 236.0 L121.0 236.0 L126.0 236.0 L131.0 236.0 L136.0 236.0 L141.0 236.0 L146.0 236.0 L151.0 236.0 L156.0 236.0 L161.0 236.0 L166.0 235.9 L171.0 235.9 L176.0 235.8 L181.0 235.7 L186.0 235.4 L191.0 235.0 L196.0 234.2 L201.0 233.1 L206.0 231.5 L211.0 229.1 L216.0 225.6 L221.0 220.9 L226.0 214.6 L231.0 206.6 L236.0 196.6 L241.0 184.7 L246.0 171.0 L251.0 156.0 L256.0 140.2 L261.0 124.3 L266.0 109.5 L271.0 96.6 L276.0 86.5 L281.0 80.2 L286.0 78.0 L291.0 80.2 L296.0 86.5 L301.0 96.6 L306.0 109.5 L311.0 124.3 L316.0 140.2 L321.0 156.0 L326.0 171.0 L331.0 184.7 L336.0 196.6 L341.0 206.6 L346.0 214.6 L351.0 220.9 L356.0 225.6 L361.0 229.1 L366.0 231.5 L371.0 233.1 L376.0 234.2 L381.0 235.0 L386.0 235.4 L391.0 235.7 L396.0 235.8 L401.0 235.9 L406.0 235.9 L411.0 236.0 L416.0 236.0 L421.0 236.0 L426.0 236.0 L431.0 236.0 L436.0 236.0 L441.0 236.0 L446.0 236.0 L451.0 236.0 L456.0 236.0 L461.0 236.0 L466.0 236.0 L471.0 236.0 L476.0 236.0 L481.0 236.0 L486.0 236.0" fill="none" stroke="#1d4e89" stroke-width="3.5"/>
  <line x1="300" y1="42" x2="336" y2="42" stroke="#5c6b7a" stroke-width="3" stroke-dasharray="7 6"/>
  <text x="344" y="47" fill="#243040" font-family="system-ui, sans-serif" font-size="15">Before</text>
  <line x1="414" y1="42" x2="450" y2="42" stroke="#1d4e89" stroke-width="3.5"/>
  <text x="458" y="47" fill="#243040" font-family="system-ui, sans-serif" font-size="15">After</text>
</svg>
